<?xml version="1.0" encoding="UTF-8"?>
<svg id="Layer_1" data-name="Layer 1" xmlns="http://www.w3.org/2000/svg" viewBox="0 0 461.39 153.43">
  <defs>
    <style>
      .cls-1, .cls-2 {
        fill: #238340;
      }

      .cls-2 {
        stroke: #fff;
      }

      .cls-2, .cls-3 {
        stroke-width: .25px;
      }

      .cls-2, .cls-3, .cls-4, .cls-5, .cls-6, .cls-7, .cls-8 {
        stroke-miterlimit: 10;
      }

      .cls-9 {
        fill: #287d3f;
      }

      .cls-10, .cls-3, .cls-4 {
        fill: #fff;
      }

      .cls-3, .cls-4, .cls-5, .cls-6, .cls-7, .cls-8 {
        stroke: #238240;
      }

      .cls-4 {
        stroke-width: .5px;
      }

      .cls-11 {
        fill: #238240;
      }

      .cls-5 {
        fill: #8fc9a1;
      }

      .cls-6, .cls-7 {
        stroke-width: .15px;
      }

      .cls-6, .cls-8 {
        fill: #288242;
      }

      .cls-7 {
        fill: none;
      }

      .cls-8 {
        stroke-width: .75px;
      }
    </style>
  </defs>
  <path class="cls-1" d="M31.48,90.26l-1.42,11.96c-2.86-1.29-5.37-1.9-7.17-2.21-.96-.17-3.72-.59-6.29,0-1.07.25-1.83.6-2.44,1.02-.29.19-.99.68-1.52,1.44-1.47,2.1-.61,4.83-.57,4.96.18.53.79,2.1,3.94,4.04,2.83,1.74,5.12,2.19,6.67,2.67,4.81,1.49,9.91,5.66,11.96,11.11,2.01,5.36.45,10.29-.03,11.63-.47,1.32-2.3,5.97-7.1,8.89-2.74,1.67-5.28,2.06-7.58,2.42-3.93.6-7.23.24-9.38-.17-1.36-.2-3.34-.58-5.67-1.29-2.37-.73-3.58-1.11-4.29-2.04-.33-.43-.69-1.09-.58-6.25.06-3.07.26-6.33.26-6.33,1.54,1.11,3.5,2.27,5.9,3.17,3.25,1.22,5.79,1.4,8.42,1.58,3.56.25,4.72-.16,5.5-.58.47-.25,1.87-1.04,2.67-2.75,1.02-2.19.29-4.27.12-4.71-.35-.65-.94-1.58-1.89-2.49-2.16-2.08-4.55-2.46-6.95-3.26-1.91-.63-4.58-1.78-7.58-4-1.37-1.06-3.78-3.24-5.18-6.8-1.27-3.22-1.12-6.05-1.01-7.82.17-2.78.86-4.81,1.07-5.42.61-1.72,1.62-4.61,4.38-6.96,1.6-1.36,3.15-1.99,4.31-2.46,2.47-.98,4.49-1.16,6.65-1.33,1.04-.08,4.51-.31,9.04.5,2.37.42,4.32,1.01,5.75,1.5Z"/>
  <path class="cls-2" d="M46.28,148.5h11.33v-23.11h16.69s8.92-2.12,11.75-13.79v-9.67s-2.67-11.17-13.67-13h-26.11c4.11,8.65,8.09,10.96,11.11,11.33,3.76.47,10.47-1.5,13.67,0,1.41.66,2.28,1.75,2.28,1.75.74.94,1.04,1.91,1.17,2.47.13.58.07.75.02,2.81-.06,2.57.01,2.66-.16,3.2-.45,1.42-1.42,2.27-1.75,2.55-1.17,1.01-2.44,1.29-2.89,1.39-4.85,1.09-14.92-2.8-19.08-.08-2.27,1.48-2.11,4.48-2.58,13.17-.3,5.41-.81,12.54-1.78,20.99Z"/>
  <path class="cls-9" d="M91.12,111.38c.81-3,2.45-7.5,5.97-11.98,6.56-8.33,15.29-11.03,18.53-11.86,2.42-.57,5.58-1.09,9.28-1.11,3.9-.02,7.21.52,9.72,1.11,2.78.83,6.5,2.32,10.29,5.08,7.86,5.74,11.07,13.4,12.26,16.81.58,2.53,1.18,6.05,1.22,10.28.03,2.57.04,6.22-1.11,10.61-.57,2.18-1.99,7.37-6.06,12.23-5.95,7.11-13.92,9.16-16.94,9.77-2.54.58-5.79,1.08-9.56,1.11-4.12.04-7.64-.5-10.33-1.11-2.63-.54-9.5-2.31-15.48-8.43-5.77-5.91-7.44-12.51-7.96-15.13-.25-2.54-.41-5.35-.39-8.39.02-3.29.24-6.3.56-9Z"/>
  <path class="cls-2" d="M167.62,148.5v-59.85h28s10.11,1.78,12.78,12.89v10.78s.11,9.22-11,11.56c0,0,13,24.58,12.89,24.63-.11.04-13.78,0-13.78,0l-11.33-23.07-6,.11.11,22.96h-11.67Z"/>
  <path class="cls-10" d="M179.28,114.43v-14.17h13.11s2.67,1.28,4,5.39v4s-.67,3.33-4.11,4.78h-13Z"/>
  <polygon class="cls-1" points="213.39 100.26 213.39 88.65 255.39 88.65 255.39 100.26 240.39 100.26 240.28 148.52 228.51 148.52 228.39 100.26 213.39 100.26"/>
  <polygon class="cls-11" points="266.51 23.65 266.51 147.21 325.17 147.21 325.17 124.76 288.28 124.76 288.31 23.65 266.51 23.65"/>
  <rect class="cls-1" x="334.56" y="87.26" width="11.67" height="59.94"/>
  <path class="cls-1" d="M360.39,147.21v-60.61h3.83l30.17,34.83v-34.17h11v61.25h-2.67c-10.15-11.05-20.3-22.1-30.44-33.14l.11,31.83h-12Z"/>
  <polygon class="cls-1" points="419.45 87.6 430.51 87.6 430.51 111.49 446.45 87.6 459.31 87.6 440.31 116.85 461.39 147.21 446.51 147.21 430.45 124.43 430.39 147.21 419.45 147.21 419.45 87.6"/>
  <path class="cls-1" d="M288.3,66.63s0,0,0,0c-.29.35-.17,1.06-.15,1.67.02.91-.21,1.43.11,1.69.01,0,.02.01.04.02.46.29,1.1.08,1.33,0,1.01-.35,2.62-1.22,2.84-1.33,0,0,2.14-1.14,3.68-1.28.67-.06,1.22.08,1.22.08.18.05.35.1.46.15.32.12.5.25.84.35.82.26,1.56.11,1.85.05.96-.21,1.58-.74,1.96-1.07.79-.69,1.16-1.42,1.25-1.61.22-.47.33-.89.39-1.19.14-.89.24-1.97.19-3.19-.03-.95-.14-1.8-.28-2.53-.2-.31-.41-.63-.61-.94-.14-.23-.41-.75-.42-1.47-.01-.68.22-1.18.34-1.42.44-.36.88-.72,1.32-1.08.13-.24.46-.96.29-1.87-.11-.58-.37-.99-.54-1.21-.23-.23-.89-.83-1.95-1.03-1-.19-1.8.09-2.1.22-.44.12-.87.24-1.31.37-.22.48-.44.96-.67,1.44l-.03,3h-1l-1.94-1.03c-.69-1.95-1.37-3.9-2.06-5.85-.04-.52-.09-1.27-.17-2.18-.1-1.24-.24-2.94-.47-4.86-.19-1.62-.21-1.41-.5-3.58-.35-2.66-.29-2.78-.58-4.92-.32-2.38-.49-3.6-.92-5.1-.25-.89-.59-2.09-1.29-3.52-.91-1.86-1.9-3.08-3.25-4.71-1.03-1.24-2.19-2.5-3.54-4.17-.65-.8-.92-1.17-1.02-1.31-.69-.94-.95-1.46-1.9-2.61-.65-.79-1.66-1.92-3.08-3.17.2-.24.41-.48.61-.72.23-.27.34-.43.44-.56.23-.28.57-.67,1.08-1.11,0-.35,0-.82-.01-1.37-.02-1.16-.03-1.34-.1-1.57-.07-.23-.3-.93-.98-1.46-.08-.06-.38-.29-.83-.45-.94-.34-1.81-.12-2.19,0-.27.09-1.21.42-1.83,1.42-.76,1.21-.45,2.45-.39,2.67-1.71.24-3.43.49-5.14.73-.6.12-1.43.35-2.31.85-1.47.84-2.29,1.97-2.69,2.6-.48.85-1.25,2.52-1.29,4.73-.02,1.36.23,2.48.48,3.25.26.37.88,1.16,1.97,1.68,1.03.49,1.96.51,2.42.49l2.5-.17c-.01,1.74-.03,3.48-.04,5.22h3.42c.31.1.63.06.82-.12.25-.25.19-.69.08-.91-.29-.55-1.42-.67-2.81-.34.05-1.28.1-2.57.15-3.85h1.4c.5.33,1.15.85,1.75,1.64,1.07,1.41,1.33,2.86,1.42,3.58h2.88c.31.09.63.03.81-.16.27-.28.17-.74.02-.98-.3-.48-1.21-.59-2.24-.21-.46-1.38-1.06-2.41-1.44-3.18-.27-.55-.76-1.36-1.58-2.14-.98-.92-2-1.38-2.61-1.6l-1.31-.53c-.43-.34-.86-.69-1.29-1.03-.08-.07-.97-.9-.81-2.12.12-.96.8-1.5.94-1.6.32-.25,1-.94,1.8-.84.68.08.94.65,2.01,1.9,0,0,.64.75,2.11,2.17.64.62,1.63,1.49,3,2.39.74.25,1.67.49,2.75.63,1.07.14,2.02.14,2.79.09.73.78,1.71,1.83,2.85,3.08,2,2.2,2.62,2.93,3.08,4.14.19.49.33,1.04.58,2.15.44,1.92.64,3.39.67,3.54,0,0,2.91,20.58,2.68,23.92,0,0,0,.03,0,.07,0,.11,0,.32.05.57.06.31.17.52.2.58.13.25.29.44.42.56.17.16.33.32.5.49l4.89,3.78c.11.65.2,1.45.18,2.37-.01.81-.11,1.52-.22,2.12l-.83.64c-.34-.3-.88-.7-1.6-1.01-.95-.41-1.75-.46-2.5-.5-.8-.04-2.01-.02-3.46.35.11-.27.25-.76.17-1.35-.06-.38-.12-.83-.5-1.08-.51-.33-1.16-.03-1.22,0,0,1.29,0,2.58,0,3.88.49-.07,1.18-.15,2.01-.18,3.71-.15,7.06.82,7.02,1.14,0,.08-.27.05-1.33.25-.43.08-1.24.24-2.1.53-.82.27-1.39.57-1.96.86-.63.33-1.44.79-2.33,1.44.37-1.08.29-2-.14-2.25-.26-.15-.92-.21-1.18.11Z"/>
  <polygon class="cls-10" points="278.42 14.37 280.5 14.37 280.5 13.49 274.47 7.46 272.42 7.46 272.42 8.49 278.42 14.37"/>
  <path class="cls-10" d="M125.95,106.32l12.22,10.56,10.6-3.67,2.74-10.44s-8.78-11-15-12.67l-10.56,4.33v11.89Z"/>
  <path class="cls-10" d="M138.73,118.59l10.78-4.16,6.67,5.5s1.31,15.17-7.4,19.94h-8.49l-6.78-9.22,5.22-12.07Z"/>
  <path class="cls-10" d="M132.28,131.43l6.44,9-3.22,9.78s-13.22,3.89-21.33,0l-4-8.52,6.33-10.25h15.78Z"/>
  <path class="cls-10" d="M108.62,139.88l6.22-8.44-4.67-14.56-9.67-4.22-8,6.06s-.67,11.75,6.44,21.16h9.67Z"/>
  <path class="cls-10" d="M111.51,115.17l-10.89-4.29v-11.56s4.17-6.22,14.22-9.56l9.61,5v11.44l-12.94,8.96Z"/>
  <rect class="cls-5" x="321.46" y="41.54" width="37.88" height="23.33"/>
  <path class="cls-4" d="M331.86,57.72s-.03-1,1.01-.98h15.03s1.03.01,1.03.98v6.77h-17.07v-6.77Z"/>
  <path class="cls-3" d="M348.93,64.99c-1.01,1.27-2.32,3.22-3.29,5.84-1.1,2.98-1.32,5.61-1.33,7.32-.36-.43-.93-.97-1.58-.92-.88.07-1.1,1.17-1.96,1.21-.81.04-1.07-.93-2.04-1.08-.79-.12-1.52.37-2,.79.16-1.45.28-4.44-1.12-7.79-1.12-2.66-2.73-4.42-3.74-5.38h17.07Z"/>
  <rect class="cls-8" x="328.35" y="64.99" width="24.94" height="1"/>
  <path class="cls-6" d="M337.89,64.49v4.06-4.06Z"/>
  <path class="cls-6" d="M340.82,64.49v4.06-4.06Z"/>
  <path class="cls-6" d="M343.53,64.99v3.56-3.56Z"/>
  <path class="cls-7" d="M340.82,68.54c.39.06.19,1.26.85,2.25.73,1.1,2.18,1.43,3.32,1.53-.48.98-1.12,2.1-1.96,3.27-.81,1.14-1.64,2.08-2.39,2.84-.76-.75-1.62-1.71-2.47-2.9-.86-1.21-1.49-2.37-1.95-3.35.76-.07,1.74-.28,2.57-.96,1.33-1.09,1.56-2.75,2.01-2.68Z"/>
  <path class="cls-7" d="M344.31,78.15c-1.37-1.3-3.01-3.14-4.47-5.6-.86-1.44-1.48-2.8-1.94-4.01-.25.19-.64.44-1.17.61-.68.22-1.27.19-1.61.15"/>
  <path class="cls-7" d="M336.73,78.15s2.35-2.25,3.66-3.85c1.01-1.23,2.23-3.08,3.14-5.79.25.2.7.51,1.33.7.58.17,1.08.16,1.39.14"/>
</svg>